<svg width="30" height="30" viewBox="0 0 30 30" fill="none" xmlns="http://www.w3.org/2000/svg">
<circle cx="15" cy="15" r="15" fill="white"/>
<path fill-rule="evenodd" clip-rule="evenodd" d="M2.57611 12.7297C2.98536 12.6254 3.40165 12.8727 3.5059 13.2819C4.35927 16.6319 6.25327 19.5889 8.88666 21.6957C11.5195 23.8019 14.7444 24.941 18.0587 24.941C18.481 24.941 18.8234 25.2834 18.8234 25.7057C18.8234 26.1281 18.481 26.4704 18.0587 26.4704C14.3915 26.4704 10.8309 25.2096 7.93127 22.8899C5.03219 20.5706 2.95739 17.3242 2.02385 13.6595C1.9196 13.2502 2.16685 12.8339 2.57611 12.7297Z" fill="#697AB8"/>
<path fill-rule="evenodd" clip-rule="evenodd" d="M14.9996 3.52954C15.4219 3.52954 15.7642 3.8719 15.7642 4.29423V19.588C15.7642 20.0104 15.4219 20.3527 14.9996 20.3527C14.5772 20.3527 14.2349 20.0104 14.2349 19.588V4.29423C14.2349 3.8719 14.5772 3.52954 14.9996 3.52954Z" fill="#77C5D3"/>
<path fill-rule="evenodd" clip-rule="evenodd" d="M27.9702 8.67249C28.0862 9.07856 27.8511 9.50181 27.445 9.61783L21.8862 11.2061C21.1468 11.4173 21.1468 12.4653 21.8862 12.6766L27.445 14.2648C27.8511 14.3808 28.0862 14.8041 27.9702 15.2102C27.8542 15.6162 27.431 15.8514 27.0249 15.7354L21.4661 14.1471C19.2476 13.5133 19.2476 10.3694 21.4661 9.73552L27.0249 8.14729C27.431 8.03127 27.8542 8.26641 27.9702 8.67249Z" fill="#77C5D3"/>
</svg>
